<?xml version="1.0" standalone="no"?>
<!DOCTYPE svg PUBLIC "-//W3C//DTD SVG 20010904//EN"
 "http://www.w3.org/TR/2001/REC-SVG-20010904/DTD/svg10.dtd">
<svg version="1.0" xmlns="http://www.w3.org/2000/svg"
 width="390.000000pt" height="266.000000pt" viewBox="0 0 390.000000 266.000000"
 preserveAspectRatio="xMidYMid meet">

<g transform="translate(0.000000,266.000000) scale(0.100000,-0.100000)"
fill="#000000" stroke="none">
<path d="M0 1330 l0 -1330 1950 0 1950 0 0 1330 0 1330 -1950 0 -1950 0 0
-1330z m359 1279 c13 -24 13 -29 -2 -53 -17 -26 -18 -26 -147 -26 -139 0 -160
7 -160 55 0 49 20 56 163 53 130 -3 131 -3 146 -29z m209 -404 c11 -11 -19
-56 -44 -67 -25 -12 -29 -10 -60 27 l-33 40 27 6 c28 7 102 2 110 -6z m472
-128 c19 -10 25 -21 26 -47 0 -43 -9 -57 -46 -65 -17 -4 -42 -24 -64 -52 -21
-28 -45 -47 -58 -48 -20 -2 -20 -1 5 19 15 12 27 29 27 39 0 22 -25 12 -38
-17 -14 -31 -45 -31 -38 0 4 13 2 26 -4 29 -5 3 -10 1 -10 -4 0 -22 -25 -10
-42 18 -14 25 -14 32 -2 48 19 25 18 44 -2 36 -12 -4 -15 -2 -12 8 3 8 10 15
16 15 7 1 15 3 20 4 4 1 18 3 32 4 14 1 32 5 40 9 16 6 58 13 100 15 14 1 36
-4 50 -11z m-540 -7 c0 -5 -2 -10 -4 -10 -3 0 -8 5 -11 10 -3 6 -1 10 4 10 6
0 11 -4 11 -10z m-30 -10 c0 -5 -4 -10 -9 -10 -6 0 -13 5 -16 10 -3 6 1 10 9
10 9 0 16 -4 16 -10z m1380 -22 c16 -11 27 -24 25 -29 -5 -7 -82 -49 -91 -49
-4 0 -4 6 -1 14 7 18 -11 36 -29 29 -8 -3 -14 -1 -14 4 0 18 45 49 73 52 4 1
21 -9 37 -21z m-1396 -21 c-1 -9 2 -17 7 -17 5 0 9 5 9 10 0 6 9 10 21 10 17
0 20 -4 15 -23 -3 -12 -10 -46 -17 -75 -8 -38 -18 -57 -37 -70 -19 -12 -27
-13 -30 -4 -5 16 -32 -11 -32 -33 0 -9 -5 -13 -11 -9 -17 10 -5 104 20 151 11
23 18 43 14 46 -3 4 -3 13 1 22 8 21 41 14 40 -8z m1111 13 c8 -13 -15 -13
-35 0 -12 8 -11 10 7 10 12 0 25 -4 28 -10z m-999 -55 c8 -18 13 -23 14 -12 1
46 40 -16 40 -64 0 -21 -20 -27 -20 -6 -1 6 -6 2 -13 -11 l-13 -23 -12 26 c-7
14 -12 38 -12 53 0 15 -7 40 -15 56 -19 36 -19 42 2 25 9 -8 22 -27 29 -44z
m794 6 c0 -28 -7 -48 -25 -68 -14 -16 -25 -22 -25 -14 0 8 -7 11 -20 8 -13 -3
-21 1 -25 13 -8 25 4 50 26 50 10 0 26 11 36 25 25 34 33 31 33 -14z m-249
-25 c0 5 4 -2 10 -14 6 -17 4 -41 -7 -80 -15 -56 -44 -132 -50 -132 -2 0 -15
5 -29 12 -18 8 -31 8 -50 0 -23 -10 -24 -10 -16 11 5 12 27 59 49 104 21 44
42 91 45 104 6 22 7 22 27 4 11 -10 20 -14 21 -9z m692 -16 c-7 -28 -23 -36
-23 -11 0 10 6 22 13 24 6 3 13 6 14 6 0 1 -1 -8 -4 -19z m407 -40 c0 -5 -5
-10 -11 -10 -5 0 -7 5 -4 10 3 6 8 10 11 10 2 0 4 -4 4 -10z m-413 -32 c-3 -8
-6 -5 -6 6 -1 11 2 17 5 13 3 -3 4 -12 1 -19z m-232 -38 c-8 -16 -20 -32 -26
-36 -7 -4 -9 -26 -5 -63 6 -53 6 -55 -8 -31 -9 14 -15 21 -16 16 0 -5 -8 -2
-17 7 -17 14 -18 14 -19 -7 -1 -12 -25 -56 -54 -96 -54 -76 -70 -113 -70 -165
-1 -29 -1 -29 -15 -11 -14 19 -15 19 -15 -8 0 -21 4 -27 15 -22 9 3 15 0 15
-9 0 -8 -6 -15 -14 -15 -10 0 -16 -13 -19 -37 -2 -21 -4 8 -5 65 -2 99 -3 104
-29 127 l-28 23 28 30 c22 23 27 36 22 52 -5 16 -10 19 -18 11 -22 -22 -28
-10 -25 57 2 54 6 66 18 63 8 -2 27 -6 43 -9 18 -3 29 -12 33 -28 9 -36 -4
-94 -21 -94 -8 0 -15 -9 -15 -20 0 -32 16 -23 40 21 11 23 41 66 65 96 25 30
52 68 62 83 11 20 26 30 47 32 44 5 48 1 31 -32z m589 9 c-8 -13 -21 -11 -27
5 -4 10 0 12 14 9 10 -3 16 -9 13 -14z m-1481 -145 c16 -65 31 -125 33 -132 3
-10 11 -8 30 7 15 12 29 19 32 17 3 -4 -18 -43 -49 -88 -3 -5 -13 -6 -23 -2
-13 5 -14 9 -5 21 17 20 -4 41 -24 24 -17 -14 -50 -3 -43 14 2 7 -6 17 -20 24
-32 14 -32 41 1 41 29 0 31 9 11 53 -8 18 -16 40 -19 49 -3 9 -16 18 -29 20
-15 2 -24 11 -26 26 -3 17 1 22 20 22 13 0 33 7 44 15 10 8 24 13 29 12 6 -2
23 -57 38 -123z m-225 74 c1 -18 -2 -49 -8 -68 -6 -22 -6 -38 0 -44 6 -6 10
-17 10 -26 0 -17 35 -52 43 -43 3 3 23 -8 44 -25 21 -16 56 -34 78 -39 l40
-10 -37 -7 c-29 -7 -44 -3 -80 18 -23 14 -56 41 -71 61 -15 19 -32 35 -37 35
-9 0 -25 -47 -61 -180 -12 -47 -27 -89 -32 -95 -7 -7 -7 -6 -3 3 4 6 3 12 -3
12 -5 0 -12 -6 -15 -12 -7 -14 2 57 10 85 3 9 1 17 -5 17 -6 0 -13 -12 -17
-27 -13 -61 -22 -78 -40 -81 -11 -2 -15 0 -9 5 6 4 11 21 12 38 1 16 6 31 11
33 5 1 7 14 4 27 -3 20 16 132 34 197 5 15 1 16 -24 7 -47 -16 -65 -41 -53
-73 16 -40 2 -31 -15 10 -15 35 -14 38 7 60 12 13 31 24 40 24 23 0 58 36 71
73 11 29 48 57 48 36 0 -8 4 -8 15 1 8 7 15 9 15 4 0 -4 5 -3 12 4 7 7 12 12
13 12 0 0 2 -15 3 -32z m1398 15 c-2 -10 -7 -32 -11 -50 -4 -22 -11 -30 -21
-26 -7 3 -17 -2 -20 -11 -4 -11 -13 -14 -33 -10 -14 4 -28 8 -30 10 -8 7 44
67 73 85 39 24 49 24 42 2z m61 -85 c-3 -8 -6 -5 -6 6 -1 11 2 17 5 13 3 -3 4
-12 1 -19z m-700 -20 c-6 -14 -35 -108 -46 -147 -4 -15 -16 -26 -29 -28 -22
-3 -22 -1 -16 49 6 41 14 59 41 84 18 17 33 36 33 43 0 6 5 11 11 11 6 0 8 -6
6 -12z m-262 -97 c-3 -7 -1 -19 5 -26 7 -9 2 -15 -18 -24 -22 -10 -25 -10 -14
0 24 25 12 30 -22 10 -18 -12 -35 -21 -38 -21 -2 0 14 37 36 83 l40 82 8 -45
c4 -25 6 -51 3 -59z m1411 -56 c3 -8 -1 -23 -9 -35 -13 -19 -15 -19 -21 -4 -8
20 2 54 15 54 5 0 12 -7 15 -15z m-490 -50 c-14 -45 -46 -55 -46 -14 0 18 5
29 14 29 8 0 18 10 21 21 5 14 10 18 14 10 4 -7 3 -27 -3 -46z m458 -10 c3 -8
1 -15 -4 -15 -6 0 -10 7 -10 15 0 8 2 15 4 15 2 0 6 -7 10 -15z m586 -55 c0
-13 -1 -13 -10 0 -5 8 -10 22 -10 30 0 13 1 13 10 0 5 -8 10 -22 10 -30z
m-617 -24 l-27 -55 -13 26 c-11 21 -10 27 2 40 12 11 15 11 15 1 0 -7 10 -1
21 15 31 41 32 33 2 -27z m-139 -2 c3 -8 2 -12 -4 -9 -6 3 -10 10 -10 16 0 14
7 11 14 -7z m-874 -88 c0 -2 -7 -7 -16 -10 -8 -3 -12 -2 -9 4 6 10 25 14 25 6z
m808 -658 c16 -16 15 -73 -2 -87 -9 -8 -43 -11 -92 -9 -73 3 -79 5 -93 29 -13
24 -13 29 2 53 16 24 22 26 95 26 47 0 83 -5 90 -12z m540 -161 c12 -14 157
-18 178 -5 15 10 24 -1 17 -20 -6 -15 -4 -15 14 1 21 19 33 14 33 -14 0 -13
-8 -17 -30 -17 -18 1 -30 6 -30 15 0 7 -9 13 -20 13 -25 0 -26 -17 -2 -23 9
-2 -29 -4 -85 -4 l-103 -1 0 34 c0 36 10 43 28 21z m-2516 -27 c-5 -37 -26
-34 -30 3 -3 21 1 27 16 27 15 0 18 -6 14 -30z m121 5 c-3 -8 0 -15 6 -15 6 0
11 10 11 22 0 20 1 20 19 4 14 -12 21 -14 26 -6 5 9 10 9 19 0 8 -9 8 -14 -3
-17 -11 -5 -11 -7 0 -14 9 -6 -5 -9 -37 -9 -45 0 -52 3 -57 22 -3 12 -4 25 -1
30 9 14 24 -1 17 -17z m329 -5 l5 -30 -59 0 c-51 0 -58 2 -58 19 0 29 20 37
27 10 l6 -23 9 23 c6 18 11 21 22 12 10 -9 16 -8 26 4 17 20 17 20 22 -15z
m70 6 c4 5 30 9 59 9 44 0 53 -3 60 -22 7 -19 5 -23 -11 -23 -12 0 -20 7 -20
18 -1 15 -2 15 -10 2 -6 -11 -27 -16 -64 -18 -48 -2 -56 0 -56 16 0 10 6 24
12 30 10 10 14 9 19 -5 3 -9 8 -12 11 -7z m384 -2 c-7 -18 2 -18 21 1 18 18
33 11 33 -15 0 -16 -6 -19 -32 -17 -28 2 -34 7 -36 31 -2 19 0 26 8 21 6 -4 9
-13 6 -21z m295 -1 c0 -27 1 -27 9 -5 5 12 12 22 15 22 3 0 10 -10 15 -22 8
-21 9 -21 9 -3 1 18 8 20 56 20 53 0 54 -1 48 -25 -7 -30 -20 -46 -30 -36 -4
4 -1 11 6 15 16 11 6 31 -16 31 -9 0 -13 -6 -9 -15 3 -8 1 -15 -4 -15 -6 0
-10 7 -10 15 0 8 -7 15 -16 15 -10 0 -14 -6 -10 -15 4 -12 -5 -15 -48 -15
l-53 0 5 30 c5 38 32 40 33 3z m219 17 c0 -12 37 -13 44 -2 10 16 51 6 50 -12
-2 -20 12 -21 20 0 8 20 26 9 26 -17 0 -14 -7 -19 -30 -19 -23 0 -30 4 -30 20
0 11 -5 20 -11 20 -6 0 -8 -9 -4 -20 4 -11 2 -20 -4 -20 -6 0 -11 8 -11 17 0
15 -2 14 -15 -3 -14 -18 -16 -18 -29 -1 -7 9 -16 17 -19 17 -3 0 -8 -8 -10
-17 -3 -10 -5 -3 -6 15 -1 22 4 32 14 32 8 0 15 -4 15 -10z m260 -1 c0 -5 -4
-7 -10 -4 -6 3 -10 -4 -10 -17 0 -18 2 -20 10 -8 5 8 10 11 10 5 0 -5 4 -4 9
4 10 15 91 25 91 11 0 -5 2 -15 5 -22 5 -12 -9 -15 -65 -15 l-70 -1 0 29 c0
19 5 29 15 29 8 0 15 -5 15 -11z m270 -20 c0 -10 5 -19 11 -19 7 0 9 10 7 25
-3 14 -1 25 3 25 5 0 9 -11 9 -25 0 -30 16 -33 23 -4 7 25 27 16 27 -12 0 -19
-6 -20 -81 -18 -60 1 -83 -2 -90 -12 -7 -11 -9 -11 -9 3 0 11 -7 15 -22 12
-13 -2 -17 -1 -10 2 9 4 10 9 2 19 -16 19 2 26 38 16 20 -6 34 -5 41 2 9 9 13
6 17 -11 8 -30 27 -28 22 3 -3 13 -1 22 3 19 5 -3 9 -14 9 -25z m166 -4 c1
-14 -1 -25 -6 -25 -10 0 -21 41 -14 52 9 13 17 2 20 -27z m54 10 c0 -31 16
-33 23 -3 5 17 9 19 20 10 8 -7 17 -9 20 -5 4 3 28 7 54 7 36 1 47 -3 51 -16
2 -10 9 -18 14 -18 5 0 7 9 3 19 -3 11 -1 22 5 26 6 4 10 -4 10 -19 0 -31 15
-35 23 -6 7 27 27 25 28 -2 l0 -23 10 23 c12 31 32 23 34 -12 1 -29 -22 -48
-34 -27 -5 7 -52 12 -142 12 l-134 1 -2 29 c-1 16 2 29 7 29 6 0 10 -11 10
-25z m801 -25 c5 0 9 7 9 15 0 21 30 19 31 -2 1 -17 2 -17 6 0 4 16 13 20 30
15 4 -2 7 -14 8 -27 1 -25 -23 -41 -34 -22 -4 6 -39 12 -81 14 -66 2 -75 4
-77 22 -1 16 -1 16 3 2 3 -9 10 -15 15 -11 5 3 7 10 4 15 -4 5 -2 9 4 9 5 0
16 3 25 6 10 4 16 1 16 -9 0 -9 5 -19 12 -23 8 -5 9 -2 5 10 -4 10 -4 23 0 29
5 7 9 1 11 -15 2 -16 8 -28 13 -28z m125 24 c-3 -8 1 -14 10 -14 11 0 15 6 11
20 -5 18 -3 18 18 4 18 -12 24 -12 28 -2 4 10 7 10 18 -1 12 -11 12 -14 0 -18
-11 -4 -11 -7 0 -13 7 -5 -11 -8 -42 -7 -52 2 -54 3 -57 31 -2 19 0 26 8 21 6
-4 9 -13 6 -21z m347 13 c6 4 8 0 4 -10 -3 -9 -2 -19 3 -22 5 -3 10 2 12 11 2
12 14 17 36 18 30 1 32 -1 27 -24 -8 -32 -26 -50 -32 -32 -3 6 -21 12 -42 12
-37 0 -37 1 -33 33 3 17 7 26 9 19 3 -6 10 -9 16 -5z m-3365 -15 c2 -7 -2 -12
-10 -12 -10 0 -10 -2 1 -9 10 -6 2 -9 -23 -9 -27 0 -36 4 -36 17 0 10 2 20 5
22 9 9 59 2 63 -9z m622 -4 c8 -21 9 -21 9 -3 1 18 8 20 82 21 66 1 79 -2 75
-13 -4 -8 -6 -19 -6 -24 0 -17 -30 -9 -31 9 -1 16 -2 16 -6 0 -5 -22 -31 -24
-39 -3 -4 8 -11 15 -16 15 -6 0 -8 -7 -4 -15 3 -8 1 -15 -4 -15 -6 0 -10 7
-10 15 0 8 -7 15 -16 15 -10 0 -14 -6 -10 -15 4 -11 -2 -15 -24 -15 -25 0 -30
4 -30 25 0 31 18 33 30 3z m333 9 c3 5 27 8 54 8 42 -1 48 -4 51 -23 2 -15 -2
-22 -12 -22 -9 0 -16 8 -16 17 0 15 -1 15 -14 -2 -13 -18 -13 -18 -24 1 -10
17 -11 17 -12 2 0 -14 -9 -18 -39 -18 -31 0 -38 4 -37 18 1 23 17 33 32 21 7
-6 15 -6 17 -2z m559 -10 c-7 -8 -9 -17 -5 -20 3 -4 1 -7 -5 -7 -16 0 -15 37
1 43 18 6 22 -1 9 -16z m488 14 c0 -5 3 -16 6 -25 4 -12 0 -16 -15 -16 -19 0
-22 12 -12 48 2 7 21 1 21 -7z m755 -16 c0 -12 -8 -21 -20 -23 -15 -2 -16 -1
-7 6 11 7 10 10 -3 16 -24 9 -28 8 -21 -9 3 -8 1 -15 -4 -15 -15 0 -12 38 3
43 28 9 52 2 52 -18z m455 15 c0 9 81 7 97 -3 7 -4 10 -14 6 -22 -4 -11 -22
-15 -68 -15 -41 0 -65 -4 -68 -12 -3 -7 -6 1 -7 17 -2 18 -4 23 -7 13 -6 -24
-33 -23 -33 0 0 27 7 31 46 22 18 -4 34 -4 34 0z m-3039 -17 c0 -15 2 -15 9 2
l9 20 1 -20 c2 -17 3 -17 7 -2 2 9 12 17 21 17 15 0 15 -2 2 -10 -11 -7 -12
-12 -4 -17 9 -6 8 -12 -2 -21 -8 -7 -14 -8 -14 -2 0 5 -8 10 -19 10 -10 0 -21
9 -24 20 -3 11 -1 20 4 20 5 0 9 -8 10 -17z m1369 -13 c0 -5 -2 -10 -4 -10 -3
0 -8 5 -11 10 -3 6 -1 10 4 10 6 0 11 -4 11 -10z m1930 0 c0 -5 -4 -10 -10
-10 -5 0 -10 5 -10 10 0 6 5 10 10 10 6 0 10 -4 10 -10z m-3550 -62 c0 -13 3
-18 8 -12 4 6 31 11 61 11 34 1 57 6 62 14 7 11 9 10 9 -3 0 -17 -10 -22 -37
-19 -20 3 -15 -17 5 -21 27 -6 52 3 52 18 0 8 7 14 15 14 8 0 15 -7 15 -15 0
-8 5 -15 11 -15 7 0 9 10 7 25 -3 14 -1 25 3 25 5 0 9 -9 9 -19 0 -11 2 -25 5
-33 4 -10 -9 -13 -60 -12 -37 1 -69 5 -72 8 -3 3 -12 1 -19 -5 -9 -7 -16 -4
-28 12 -8 13 -19 19 -23 15 -4 -4 -2 -11 5 -15 10 -6 10 -11 -3 -21 -12 -10
-15 -10 -15 3 0 10 -6 13 -20 10 -12 -3 -20 0 -20 6 0 7 5 9 10 6 6 -3 10 -1
10 4 0 6 -4 11 -10 11 -5 0 -10 7 -10 15 0 8 7 15 15 15 9 0 15 -9 15 -22z
m274 9 c7 -7 11 -18 8 -25 -2 -6 1 -12 7 -12 6 0 11 7 11 15 0 10 10 15 34 15
32 0 34 -2 27 -27 -7 -26 -31 -45 -31 -24 0 6 4 11 10 11 5 0 7 7 3 17 -6 14
-7 14 -14 -4 -5 -13 -15 -19 -31 -17 -12 1 -27 3 -33 3 -5 1 -10 15 -10 31 0
34 1 35 19 17z m233 1 c3 6 9 12 14 12 6 0 7 -5 4 -10 -4 -7 12 -10 44 -9 28
1 51 6 51 11 0 5 5 6 11 3 6 -4 8 -13 5 -21 -3 -8 -1 -14 3 -14 5 0 12 8 15
17 5 12 10 13 18 5 12 -12 41 -4 32 9 -3 5 -1 9 4 9 10 0 23 -59 13 -61 -3 0
-35 -1 -70 -2 -56 -2 -65 1 -69 17 -5 19 -6 19 -13 -1 -7 -19 -15 -21 -90 -19
-84 2 -98 9 -85 42 5 13 9 14 20 5 9 -8 16 -8 20 -2 4 6 13 8 21 4 8 -3 15 0
15 7 0 9 4 9 17 -1 13 -11 17 -11 20 -1z m333 -10 c5 -13 9 -17 9 -10 1 15 81
17 81 1 0 -5 -4 -7 -10 -4 -5 3 -10 -1 -10 -9 0 -9 -7 -16 -15 -17 -64 -4 -69
-3 -76 22 -7 23 -7 23 -8 -5 -1 -21 -5 -27 -17 -22 -9 3 -22 6 -30 6 -16 0
-19 36 -4 45 6 3 14 -4 19 -17 9 -22 10 -22 10 -2 2 40 36 48 51 12z m503 -18
c4 -12 6 -11 6 3 1 27 66 24 68 -3 2 -18 -5 -20 -50 -21 -124 -2 -162 2 -174
18 -12 15 -17 11 -14 -9 0 -5 -3 -8 -9 -8 -5 0 -10 9 -10 20 0 17 7 20 50 20
33 0 50 -4 51 -12 0 -10 2 -10 6 0 6 15 33 16 33 1 0 -5 -4 -7 -10 -4 -5 3
-10 1 -10 -4 0 -6 7 -11 15 -11 9 0 15 10 15 26 0 21 2 23 13 12 8 -7 16 -20
20 -28z m117 30 c-10 -6 -11 -10 -2 -10 6 0 12 -4 12 -10 0 -5 -7 -7 -15 -4
-21 8 -19 34 3 34 14 0 15 -2 2 -10z m152 -40 c5 0 8 7 4 15 -4 10 1 15 14 15
13 0 20 -7 20 -20 0 -11 -3 -20 -7 -21 -59 -6 -61 -5 -58 26 4 41 7 45 12 13
2 -16 9 -28 15 -28z m63 17 c-6 -20 -5 -21 8 -4 15 19 37 23 37 7 0 -5 7 -10
15 -10 8 0 15 -4 15 -10 0 -5 -16 -10 -35 -10 -19 0 -38 -1 -42 -2 -5 -2 -9
12 -11 31 -2 22 0 31 8 26 6 -4 8 -16 5 -28z m130 23 c3 -5 37 -10 76 -10 62
0 69 -2 69 -20 0 -17 -7 -20 -49 -20 -35 0 -51 4 -55 16 -3 8 -10 12 -16 9 -6
-4 -8 -11 -5 -16 4 -5 1 -9 -4 -9 -6 0 -11 7 -11 16 0 9 -6 14 -12 11 -7 -2
-12 -10 -10 -16 1 -6 -2 -11 -8 -11 -5 0 -10 14 -10 30 0 30 21 42 35 20z
m201 -35 c1 -16 -3 -21 -15 -18 -10 2 -16 15 -16 32 0 22 3 26 15 19 8 -5 16
-20 16 -33z m136 15 c4 -23 1 -30 -12 -30 -13 0 -16 7 -12 30 2 17 8 30 12 30
4 0 10 -13 12 -30z m71 16 c9 -7 29 -12 45 -10 15 2 21 1 15 -2 -7 -3 -13 -12
-13 -20 0 -8 -9 -14 -20 -14 -11 0 -23 0 -27 -1 -5 0 -11 10 -15 23 -6 23 -6
23 -7 1 -1 -12 -5 -24 -10 -27 -7 -4 -8 47 -2 62 3 5 17 0 34 -12z m178 -9
c10 3 19 0 19 -6 0 -6 -6 -11 -12 -11 -9 0 -8 -4 2 -10 11 -7 7 -10 -20 -11
-19 -1 -42 -2 -50 -3 -8 0 -18 4 -22 9 -11 15 -10 45 2 45 6 0 10 -7 10 -15 0
-8 5 -15 11 -15 6 0 9 9 6 20 -5 18 -3 18 15 6 10 -8 28 -12 39 -9z m270 -27
c5 0 9 7 9 16 0 13 8 15 35 12 25 -3 35 0 39 12 2 8 4 1 5 -17 l1 -31 -60 -4
c-53 -3 -59 -1 -54 15 3 11 0 17 -10 17 -9 0 -16 -7 -16 -15 0 -8 -4 -15 -8
-15 -4 0 -8 9 -8 20 0 14 7 20 23 20 13 0 24 6 24 13 1 6 4 0 6 -15 2 -16 9
-28 14 -28z m-1611 30 c39 3 73 3 76 1 2 -2 4 -13 4 -23 0 -23 -19 -23 -36 0
-13 16 -13 16 -14 0 0 -17 -17 -23 -50 -19 -8 1 -30 2 -47 2 -24 1 -33 6 -33
18 0 22 11 34 21 24 5 -5 40 -6 79 -3z m1431 -19 c0 -12 2 -11 9 4 7 17 9 17
9 3 1 -10 6 -18 12 -18 6 0 9 7 5 15 -4 12 3 15 32 15 28 0 33 -3 22 -10 -12
-8 -12 -12 -2 -18 10 -7 10 -11 -3 -22 -13 -11 -15 -9 -15 14 0 14 -4 26 -10
26 -5 0 -10 -7 -10 -15 0 -23 -60 -20 -61 3 -1 16 -2 16 -6 0 -6 -24 -33 -23
-33 0 0 10 3 21 6 24 10 11 44 -5 45 -21z m-911 0 c0 -29 -12 -32 -37 -9 -13
12 -23 17 -23 11 0 -6 5 -13 11 -15 7 -2 5 -9 -5 -17 -14 -12 -16 -10 -16 17
0 28 3 30 35 30 27 0 35 -4 35 -17z m509 -11 c-10 -28 -29 -41 -29 -20 0 6 -6
10 -14 10 -8 0 -18 5 -21 10 -11 18 5 30 40 30 33 0 34 -1 24 -30z m-609 -6
c0 -2 -7 -4 -15 -4 -8 0 -15 4 -15 10 0 5 7 7 15 4 8 -4 15 -8 15 -10z m650
-123 c0 -6 -5 -13 -12 -17 -7 -4 -8 -3 -4 4 5 9 -32 12 -143 12 -134 0 -150
-2 -154 -17 -4 -14 -5 -12 -6 5 -1 22 -1 22 159 22 93 0 160 -4 160 -9z m-173
-17 c-3 -3 -12 -4 -19 -1 -8 3 -5 6 6 6 11 1 17 -2 13 -5z m40 0 c-3 -3 -12
-4 -19 -1 -8 3 -5 6 6 6 11 1 17 -2 13 -5z m40 0 c-3 -3 -12 -4 -19 -1 -8 3
-5 6 6 6 11 1 17 -2 13 -5z m46 -1 c-7 -2 -19 -2 -25 0 -7 3 -2 5 12 5 14 0
19 -2 13 -5z m-329 -22 c7 -11 -3 -41 -14 -41 -11 0 -21 30 -14 41 3 5 9 9 14
9 5 0 11 -4 14 -9z m289 -8 c-34 -2 -93 -2 -130 0 -37 2 -9 3 62 3 72 0 102
-1 68 -3z m0 -30 c-34 -2 -93 -2 -130 0 -37 2 -9 3 62 3 72 0 102 -1 68 -3z
m84 -53 l-2 -60 -157 0 c-158 0 -158 0 -157 23 1 16 2 18 6 5 4 -16 20 -18
156 -17 84 1 144 3 135 6 -22 5 -24 29 -3 37 10 3 14 15 11 36 -2 16 0 30 5
30 5 0 7 -27 6 -60z m-417 10 c0 -11 -7 -20 -15 -20 -8 0 -15 9 -15 20 0 11 7
20 15 20 8 0 15 -9 15 -20z m40 0 c0 -11 -7 -20 -15 -20 -17 0 -18 2 -9 24 9
23 24 20 24 -4z m50 0 c0 -11 -7 -20 -15 -20 -8 0 -15 9 -15 20 0 11 7 20 15
20 8 0 15 -9 15 -20z m277 14 c-7 -7 -219 -5 -226 2 -2 2 49 4 114 4 65 0 116
-3 112 -6z m-115 -54 c40 0 49 3 44 15 -4 11 1 15 19 15 14 0 25 -4 25 -10 0
-5 -7 -7 -15 -4 -9 4 -15 0 -15 -10 0 -13 -12 -16 -64 -16 -62 0 -64 1 -58 23
5 18 7 19 10 5 3 -14 14 -18 54 -18z"/>
<path d="M115 2580 c-3 -5 -1 -10 4 -10 6 0 11 5 11 10 0 6 -2 10 -4 10 -3 0
-8 -4 -11 -10z"/>
<path d="M641 1668 c-1 -15 4 -30 9 -33 12 -7 12 12 0 40 -8 18 -9 17 -9 -7z"/>
<path d="M1991 604 c0 -11 3 -14 6 -6 3 7 2 16 -1 19 -3 4 -6 -2 -5 -13z"/>
<path d="M2610 455 c0 -8 5 -15 10 -15 6 0 10 7 10 15 0 8 -4 15 -10 15 -5 0
-10 -7 -10 -15z"/>
<path d="M92 450 c0 -14 2 -19 5 -12 2 6 2 18 0 25 -3 6 -5 1 -5 -13z"/>
<path d="M1040 440 c0 -5 5 -10 10 -10 6 0 10 5 10 10 0 6 -4 10 -10 10 -5 0
-10 -4 -10 -10z"/>
<path d="M1540 440 c0 -5 5 -10 10 -10 6 0 10 5 10 10 0 6 -4 10 -10 10 -5 0
-10 -4 -10 -10z"/>
<path d="M1970 440 c0 -5 5 -10 10 -10 6 0 10 5 10 10 0 6 -4 10 -10 10 -5 0
-10 -4 -10 -10z"/>
<path d="M2380 440 c0 -5 5 -10 10 -10 6 0 10 5 10 10 0 6 -4 10 -10 10 -5 0
-10 -4 -10 -10z"/>
<path d="M3600 436 c0 -9 5 -16 10 -16 6 0 10 4 10 9 0 6 -4 13 -10 16 -5 3
-10 -1 -10 -9z"/>
<path d="M900 440 c0 -5 5 -10 10 -10 6 0 10 5 10 10 0 6 -4 10 -10 10 -5 0
-10 -4 -10 -10z"/>
<path d="M3440 440 c0 -5 5 -10 10 -10 6 0 10 5 10 10 0 6 -4 10 -10 10 -5 0
-10 -4 -10 -10z"/>
<path d="M605 350 c3 -5 8 -10 11 -10 2 0 4 5 4 10 0 6 -5 10 -11 10 -5 0 -7
-4 -4 -10z"/>
<path d="M995 350 c-3 -5 -1 -10 4 -10 6 0 11 5 11 10 0 6 -2 10 -4 10 -3 0
-8 -4 -11 -10z"/>
<path d="M2320 350 c0 -5 5 -10 10 -10 6 0 10 5 10 10 0 6 -4 10 -10 10 -5 0
-10 -4 -10 -10z"/>
<path d="M1100 350 c0 -5 7 -10 16 -10 8 0 12 5 9 10 -3 6 -10 10 -16 10 -5 0
-9 -4 -9 -10z"/>
<path d="M1140 350 c0 -5 5 -10 10 -10 6 0 10 5 10 10 0 6 -4 10 -10 10 -5 0
-10 -4 -10 -10z"/>
<path d="M2152 351 c-11 -7 -11 -9 2 -14 10 -4 16 -1 16 8 0 17 -1 17 -18 6z"/>
</g>
</svg>
