<?xml version="1.0" encoding="UTF-8" standalone="no"?>
<!-- Created with Inkscape (http://www.inkscape.org/) -->

<svg
   xmlns:dc="http://purl.org/dc/elements/1.1/"
   xmlns:cc="http://creativecommons.org/ns#"
   xmlns:rdf="http://www.w3.org/1999/02/22-rdf-syntax-ns#"
   xmlns:svg="http://www.w3.org/2000/svg"
   xmlns="http://www.w3.org/2000/svg"
   xmlns:xlink="http://www.w3.org/1999/xlink"
   xmlns:sodipodi="http://sodipodi.sourceforge.net/DTD/sodipodi-0.dtd"
   xmlns:inkscape="http://www.inkscape.org/namespaces/inkscape"
   width="102"
   height="83"
   viewBox="0 0 26.987492 21.960422"
   version="1.1"
   id="svg8"
   inkscape:version="0.92.5 (2060ec1f9f, 2020-04-08)"
   sodipodi:docname="Hand.svg">
  <defs
     id="defs2" />
  <sodipodi:namedview
     id="base"
     pagecolor="#ffffff"
     bordercolor="#666666"
     borderopacity="1.0"
     inkscape:pageopacity="0.0"
     inkscape:pageshadow="2"
     inkscape:zoom="1.4142136"
     inkscape:cx="-45.244662"
     inkscape:cy="70.36125"
     inkscape:document-units="mm"
     inkscape:current-layer="layer1"
     showgrid="false"
     units="px"
     inkscape:showpageshadow="true"
     inkscape:window-width="1366"
     inkscape:window-height="708"
     inkscape:window-x="0"
     inkscape:window-y="0"
     inkscape:window-maximized="1"
     inkscape:pagecheckerboard="false" />
  <metadata
     id="metadata5">
    <rdf:RDF>
      <cc:Work
         rdf:about="">
        <dc:format>image/svg+xml</dc:format>
        <dc:type
           rdf:resource="http://purl.org/dc/dcmitype/StillImage" />
        <dc:title></dc:title>
      </cc:Work>
    </rdf:RDF>
  </metadata>
  <g
     inkscape:label="back"
     inkscape:groupmode="layer"
     id="layer1"
     transform="translate(0,-275.03947)"
     style="display:inline">
    <circle
       style="display:inline;opacity:1;fill:#211c1e;fill-opacity:1;fill-rule:nonzero;stroke:none;stroke-width:1;stroke-miterlimit:4;stroke-dasharray:none;stroke-opacity:1"
       id="path6502"
       cx="12.950569"
       cy="286.14386"
       r="9.7328873" />
    <path
       sodipodi:type="inkscape:offset"
       inkscape:radius="0"
       inkscape:original="M 1.0195312 279.07031 L 1.0195312 280.09375 L 1.0195312 287.58984 L 7.2480469 288.78125 L 7.1679688 289.15039 L 7.171875 289.14844 C 7.164415 289.17894 7.157914 289.20244 7.15625 289.21484 C 7.14832 289.27374 7.1488075 289.29934 7.1484375 289.32617 C 7.1476855 289.37987 7.1492004 289.42477 7.1542969 289.47656 C 7.1644889 289.58017 7.1862741 289.70345 7.2363281 289.84961 C 7.3364361 290.14192 7.6335021 290.59445 8.1621094 290.71289 L 8.171875 290.71484 L 8.1796875 290.7168 C 8.3512892 290.7511 8.3158889 290.66715 8.4570312 290.65625 C 8.4953663 290.7584 8.5170813 290.85332 8.5898438 290.9668 C 8.7170815 291.16524 8.9454507 291.40824 9.296875 291.49609 C 9.5441056 291.55789 9.6850294 291.45502 9.8769531 291.41602 C 10.024403 291.66577 10.107304 291.94645 10.478516 292.06641 C 10.746087 292.15291 10.911284 292.00381 11.140625 291.94531 C 11.402592 292.2443 11.796015 292.52198 12.296875 292.50195 C 12.663945 292.48725 13.03819 292.25468 13.261719 291.99023 C 13.333509 292.01813 13.349099 292.03495 13.429688 292.06055 C 13.620555 292.12115 13.848076 292.17282 14.121094 292.15039 C 14.394113 292.12799 14.711365 292.0038 14.941406 291.78711 C 15.111696 291.6267 15.035636 291.58964 15.123047 291.42773 C 15.132747 291.42973 15.130845 291.43059 15.140625 291.43359 C 15.527619 291.52899 16.057469 291.70166 16.662109 291.28125 C 16.808699 291.17933 17.108831 290.98472 17.263672 290.5957 C 17.281212 290.5516 17.251102 290.503 17.263672 290.45898 C 17.619594 290.44998 18.02508 290.37718 18.34375 289.96289 C 18.565232 289.67496 18.507111 289.39322 18.509766 289.10742 C 19.116195 288.87419 19.046711 288.98654 19.261719 289.29492 L 25.873047 288.02344 L 25.873047 279.54297 C 25.873047 279.54297 17.671014 281.60393 17.564453 281.76562 C 17.102932 282.46594 14.77055 281.11391 13.953125 280.82812 C 13.569675 280.69538 13.237999 280.58043 12.796875 280.61719 C 12.177273 280.66879 11.535831 280.91585 10.908203 281.14648 C 10.594389 281.2618 10.300489 281.37494 10.068359 281.46094 C 9.8133265 281.60683 9.7726043 281.50268 9.671875 281.42188 L 1.0195312 279.07031 z "
       xlink:href="#path6517-3"
       style="display:inline;fill:none;fill-opacity:1;stroke:none;stroke-width:0.26458332px;stroke-linecap:butt;stroke-linejoin:miter;stroke-opacity:1"
       id="path6557"
       inkscape:href="#path6517-3"
       d="m 1.0195312,279.07031 v 1.02344 7.49609 l 6.2285157,1.19141 -0.080078,0.36914 0.00391,-0.002 c -0.00746,0.0305 -0.013961,0.054 -0.015625,0.0664 -0.00793,0.0589 -0.00744,0.0845 -0.00781,0.11133 -7.52e-4,0.0537 7.629e-4,0.0986 0.00586,0.15039 0.010192,0.10361 0.031977,0.22689 0.082031,0.37305 0.100108,0.29231 0.397174,0.74484 0.9257813,0.86328 l 0.00977,0.002 0.00781,0.002 c 0.1716017,0.0343 0.1362014,-0.0496 0.2773437,-0.0605 0.038335,0.10215 0.06005,0.19707 0.1328126,0.31055 0.1272377,0.19844 0.3556069,0.44144 0.7070312,0.52929 0.2472306,0.0618 0.3881544,-0.0411 0.5800781,-0.0801 0.1474499,0.24975 0.2303509,0.53043 0.6015629,0.65039 0.267571,0.0865 0.432768,-0.0626 0.662109,-0.1211 0.261967,0.29899 0.65539,0.57667 1.15625,0.55664 0.36707,-0.0147 0.741315,-0.24727 0.964844,-0.51172 0.07179,0.0279 0.08738,0.0447 0.167969,0.0703 0.190867,0.0606 0.418388,0.11227 0.691406,0.0898 0.273019,-0.0224 0.590271,-0.14659 0.820312,-0.36328 0.17029,-0.16041 0.09423,-0.19747 0.181641,-0.35938 0.0097,0.002 0.0078,0.003 0.01758,0.006 0.386994,0.0954 0.916844,0.26807 1.521484,-0.15234 0.14659,-0.10192 0.446722,-0.29653 0.601563,-0.68555 0.01754,-0.0441 -0.01257,-0.0927 0,-0.13672 0.355922,-0.009 0.761408,-0.0818 1.080078,-0.49609 0.221482,-0.28793 0.163361,-0.56967 0.166016,-0.85547 0.606429,-0.23323 0.536945,-0.12088 0.751953,0.1875 l 6.611328,-1.27148 v -8.48047 c 0,0 -8.202033,2.06096 -8.308594,2.22265 -0.461521,0.70032 -2.793903,-0.65171 -3.611328,-0.9375 -0.38345,-0.13274 -0.715126,-0.24769 -1.15625,-0.21093 -0.619602,0.0516 -1.261044,0.29866 -1.888672,0.52929 -0.313814,0.11532 -0.607714,0.22846 -0.839844,0.31446 -0.2550325,0.14589 -0.2957547,0.0417 -0.396484,-0.0391 z"
       transform="translate(-0.09937503,-274.97467)" />
    <path
       style="color:#000000;font-style:normal;font-variant:normal;font-weight:normal;font-stretch:normal;font-size:medium;line-height:normal;font-family:sans-serif;font-variant-ligatures:normal;font-variant-position:normal;font-variant-caps:normal;font-variant-numeric:normal;font-variant-alternates:normal;font-feature-settings:normal;text-indent:0;text-align:start;text-decoration:none;text-decoration-line:none;text-decoration-style:solid;text-decoration-color:#000000;letter-spacing:normal;word-spacing:normal;text-transform:none;writing-mode:lr-tb;direction:ltr;text-orientation:mixed;dominant-baseline:auto;baseline-shift:baseline;text-anchor:start;white-space:normal;shape-padding:0;clip-rule:nonzero;display:inline;overflow:visible;visibility:visible;opacity:1;isolation:auto;mix-blend-mode:normal;color-interpolation:sRGB;color-interpolation-filters:linearRGB;solid-color:#000000;solid-opacity:1;vector-effect:none;fill:#ffffff;fill-opacity:1;fill-rule:nonzero;stroke:none;stroke-width:1.56500006;stroke-linecap:butt;stroke-linejoin:miter;stroke-miterlimit:4;stroke-dasharray:none;stroke-dashoffset:0;stroke-opacity:1;color-rendering:auto;image-rendering:auto;shape-rendering:auto;text-rendering:auto;enable-background:accumulate"
       d="m 1.0192969,279.07037 v 1.02344 7.49609 l 6.2285156,1.19141 -0.080078,0.36914 0.00391,-0.002 c -0.00746,0.0305 -0.013961,0.054 -0.015625,0.0664 -0.00793,0.0589 -0.00744,0.0845 -0.00781,0.11133 -7.52e-4,0.0537 7.635e-4,0.0986 0.00586,0.15039 0.010192,0.10361 0.031977,0.22689 0.082031,0.37305 0.100108,0.29231 0.3971739,0.74484 0.9257812,0.86328 l 0.00977,0.002 0.00781,0.002 c 0.1716017,0.0343 0.1362014,-0.0496 0.2773438,-0.0605 0.038335,0.10215 0.06005,0.19707 0.1328125,0.31055 0.1272377,0.19844 0.3556069,0.44144 0.7070312,0.52929 0.2472306,0.0618 0.3881545,-0.0411 0.5800782,-0.0801 0.1474496,0.24975 0.2303506,0.53043 0.6015626,0.65039 0.267571,0.0865 0.432769,-0.0626 0.66211,-0.1211 0.261967,0.29899 0.65539,0.57667 1.15625,0.55664 0.36707,-0.0147 0.741314,-0.24727 0.964843,-0.51172 0.07179,0.0279 0.08738,0.0447 0.167969,0.0703 0.190867,0.0606 0.418388,0.11223 0.691406,0.0898 0.273019,-0.0224 0.590272,-0.14659 0.820313,-0.36328 0.17029,-0.16041 0.09423,-0.19747 0.181641,-0.35938 0.0097,0.002 0.0078,0.003 0.01758,0.006 0.386994,0.0954 0.916844,0.26807 1.521484,-0.15234 0.14659,-0.10192 0.446721,-0.29653 0.601562,-0.68555 0.01754,-0.0441 -0.01257,-0.0927 0,-0.13672 0.355922,-0.009 0.761409,-0.0818 1.080079,-0.49609 0.221482,-0.28793 0.16336,-0.56967 0.166015,-0.85547 0.606429,-0.23323 0.536945,-0.12088 0.751953,0.1875 l 6.611329,-1.27148 v -8.48047 c 0,0 -8.202033,2.06096 -8.308594,2.22266 -0.461521,0.70031 -2.7939,-0.65175 -3.611325,-0.93753 -0.38345,-0.13274 -0.715126,-0.2477 -1.15625,-0.21094 -0.619602,0.0516 -1.261044,0.29866 -1.888672,0.52929 -0.313814,0.11532 -0.607714,0.22846 -0.839844,0.31446 -0.2550329,0.14589 -0.2957559,0.0417 -0.3964852,-0.0391 z"
       id="path6517-3"
       inkscape:connector-curvature="0"
       sodipodi:nodetypes="ccccccccccccccccccccccccccccccccccscccccc" />
  </g>
  <g
     inkscape:groupmode="layer"
     id="layer2"
     inkscape:label="hands"
     style="display:inline">
    <path
       transform="translate(0,-275.03948)"
       style="color:#000000;font-style:normal;font-variant:normal;font-weight:normal;font-stretch:normal;font-size:medium;line-height:normal;font-family:sans-serif;font-variant-ligatures:normal;font-variant-position:normal;font-variant-caps:normal;font-variant-numeric:normal;font-variant-alternates:normal;font-feature-settings:normal;text-indent:0;text-align:start;text-decoration:none;text-decoration-line:none;text-decoration-style:solid;text-decoration-color:#000000;letter-spacing:normal;word-spacing:normal;text-transform:none;writing-mode:lr-tb;direction:ltr;text-orientation:mixed;dominant-baseline:auto;baseline-shift:baseline;text-anchor:start;white-space:normal;shape-padding:0;clip-rule:nonzero;display:inline;overflow:visible;visibility:visible;opacity:1;isolation:auto;mix-blend-mode:normal;color-interpolation:sRGB;color-interpolation-filters:linearRGB;solid-color:#000000;solid-opacity:1;vector-effect:none;fill:#3e3e3e;fill-opacity:1;fill-rule:nonzero;stroke:none;stroke-width:0.76499999;stroke-linecap:butt;stroke-linejoin:miter;stroke-miterlimit:4;stroke-dasharray:none;stroke-dashoffset:0;stroke-opacity:1;paint-order:stroke markers fill;color-rendering:auto;image-rendering:auto;shape-rendering:auto;text-rendering:auto;enable-background:accumulate"
       d="m 1.6716406,279.95514 v 0.17187 6.95899 l 5.4511719,1.04101 c 0.1061508,-0.26572 0.3250398,-0.39559 0.5270091,-0.35555 0.3036344,0.0602 0.3842963,0.33256 0.387053,0.4669 -0.082113,0.38334 -0.1638873,0.7675 -0.2363356,1.09766 -0.059226,0.28676 0.1474846,0.67312 0.4175198,0.76256 0.2995445,0.0992 0.5152795,0.0515 0.7152963,-0.13173 -0.055959,0.29216 0.1036902,0.68554 0.4531908,0.80595 0.3675555,0.13468 0.6230661,0.003 0.7499331,-0.10868 0.0062,0.076 0.0012,0.1162 0.04102,0.24609 0.06596,0.21532 0.20753,0.47581 0.5,0.57032 0.290408,0.0938 0.543579,-0.0123 0.705078,-0.13477 0.04492,-0.0341 0.03674,-0.0403 0.07031,-0.0742 0.0145,0.0745 -0.0019,0.0884 0.04101,0.17773 0.107092,0.22293 0.354886,0.45432 0.775391,0.4375 0.25009,-0.01 0.435956,-0.1191 0.544922,-0.27734 0.08112,-0.1178 0.113231,-0.26523 0.152344,-0.41016 0.198042,0.082 0.417273,0.19833 0.660156,0.2754 0.143301,0.0455 0.291618,0.0748 0.441406,0.0625 0.149788,-0.0123 0.30006,-0.071 0.425781,-0.18946 0.279599,-0.26337 0.308533,-0.54554 0.332031,-0.66992 0.07628,0.0322 0.211499,0.0942 0.470704,0.1582 0.321751,0.0795 0.712758,0.14096 0.99414,-0.0547 0.145433,-0.10112 0.294278,-0.20342 0.369141,-0.39258 0.05633,-0.14232 0.01805,-0.36942 -0.02148,-0.60546 0.09196,0.0292 0.150904,0.0571 0.333985,0.0781 0.282709,0.0325 0.643843,0.0134 0.855469,-0.26172 0.195833,-0.25459 0.193085,-0.5408 0.140625,-0.7461 -0.01957,-0.0766 -0.03129,-0.0756 -0.05664,-0.13086 0.06139,0.005 0.06597,0.0151 0.144531,0.01 0.204829,-0.014 0.469999,-0.0811 0.601563,-0.32226 0.197634,-0.36233 0.05374,-0.63643 0.0039,-0.76172 l 0.878906,-0.24023 0.232422,1.16015 5.447266,-1.04883 v -7.09574 l -6.900391,1.8457 0.03801,0.25856 c -0.05691,0.0332 -0.19601,0.12795 -0.487743,0.22405 -0.339345,0.11179 -0.761487,0.17546 -1.09766,0.0293 -0.370891,-0.16126 -1.144868,-0.57239 -1.921875,-0.93359 -0.388503,-0.18061 -0.778877,-0.34829 -1.126953,-0.46875 -0.348076,-0.12047 -0.592932,-0.17443 -0.834071,-0.15434 -0.02832,0.002 -0.127991,-0.004 -0.158129,5e-5 l -0.002,-0.002 c 0,0 -0.01339,0.008 -0.01367,0.008 -0.435011,0.0592 -1.021133,0.24545 -1.591797,0.45508 -0.308127,0.11319 -0.601485,0.22617 -0.839844,0.31445 -0.238359,0.0883 -0.4305537,0.1525 -0.4941407,0.16407 -0.314713,0.0572 -0.6593983,0.0471 -1.0488279,-0.0352 l 0.062258,-0.22699 z"
       id="path6531"
       inkscape:connector-curvature="0"
       sodipodi:nodetypes="ccccsccsccccccccccccscccccccccccccccccccssssscccsscccc" />
    <path
       transform="translate(0,-275.03948)"
       style="display:inline;fill:#1e1e1e;fill-opacity:1;stroke:none;stroke-width:0.26499999;stroke-linecap:butt;stroke-linejoin:miter;stroke-miterlimit:4;stroke-dasharray:none;stroke-opacity:1"
       d="m 2.3722127,280.77349 -0.1415934,5.82238 1.5337564,0.32815 1.3286012,-5.46169 z"
       id="path6561"
       inkscape:connector-curvature="0" />
    <path
       transform="translate(0,-275.03948)"
       style="display:inline;fill:#1e1e1e;fill-opacity:1;stroke:none;stroke-width:0.26458332px;stroke-linecap:butt;stroke-linejoin:miter;stroke-opacity:1"
       d="m 24.77963,281.05099 -2.564184,0.65784 1.265039,5.64978 1.369942,-0.31781 z"
       id="path6563"
       inkscape:connector-curvature="0" />
    <path
       transform="translate(0,-275.03948)"
       style="display:inline;fill:#a7a8a9;fill-opacity:1;stroke:none;stroke-width:0.26458332px;stroke-linecap:butt;stroke-linejoin:miter;stroke-opacity:1"
       d="m 22.215446,281.70883 -3.481442,0.89297 c 0.451976,1.88881 0.911223,3.84494 1.307979,5.55367 l 3.43855,-0.79686 z"
       id="path6565"
       inkscape:connector-curvature="0"
       sodipodi:nodetypes="ccccc" />
    <path
       transform="translate(0,-275.03948)"
       style="display:inline;fill:#a7a8a9;fill-opacity:1;stroke:none;stroke-width:0.26458332px;stroke-linecap:butt;stroke-linejoin:miter;stroke-opacity:1"
       d="m 5.0929769,281.46233 -1.3286012,5.46169 3.1874023,0.68161 c 0.5071461,-1.74945 0.8450148,-3.59872 1.3869926,-5.32106 z"
       id="path6567"
       inkscape:connector-curvature="0"
       sodipodi:nodetypes="ccccc" />
    <path
       transform="translate(0,-275.03948)"
       style="display:inline;fill:#e4e4e6;fill-opacity:1;stroke:none;stroke-width:1.56500006;stroke-linecap:butt;stroke-linejoin:miter;stroke-miterlimit:4;stroke-dasharray:none;stroke-opacity:1"
       d="m 12.872864,281.56259 c -0.0051,10e-4 -0.01806,0.005 -0.02326,0.006 l -0.0041,0.002 c -0.0035,0.002 -0.281026,0.12981 -0.619084,0.31626 -0.340181,0.18761 -0.7374,0.43665 -0.941544,0.64079 -0.439468,0.43947 -1.4396009,1.60889 -1.6247073,1.8557 -0.086732,0.11565 -0.15224,0.26677 -0.1643309,0.41186 -0.011689,0.14026 0.026207,0.27143 0.1328084,0.39068 0.3258873,0.24618 0.6630098,0.24442 0.9141558,0.0491 0.292378,-0.22741 2.134754,-1.71876 2.134754,-1.71876 l 0.07596,-0.061 5.699394,3.84421 0.999939,-0.262 -0.995805,-4.15633 c -0.09081,0.0512 -0.205796,0.12756 -0.488343,0.22066 -0.370592,0.12209 -0.852965,0.20962 -1.285192,0.0217 -0.397508,-0.17283 -1.159903,-0.58033 -1.928048,-0.93741 -0.384072,-0.17855 -0.767556,-0.34392 -1.101225,-0.4594 -0.33367,-0.11546 -0.621582,-0.17712 -0.781347,-0.16382 z m -1.111044,0.32142 c -0.199248,0.0658 -0.338002,0.0823 -0.537435,0.15555 -0.305758,0.11232 -0.598894,0.22551 -0.839742,0.31471 -0.240847,0.0892 -0.4188227,0.1539 -0.5389849,0.1757 -0.3390984,0.0616 -0.733008,0.0563 -1.1720213,-0.0393 l -1.3363524,4.95112 c 0.07408,-0.0351 0.2430423,-0.0648 0.4291267,-0.004 0.2942743,0.0958 0.3739701,0.28126 0.3816764,0.41761 -0.00794,-0.19089 0.1132138,-0.36841 0.2909383,-0.55191 0.1082862,-0.11181 0.4323368,-0.1163 0.6188404,-0.0724 0.3353489,0.0789 0.393719,0.23873 0.498404,0.41037 0.028463,0.0466 0.016491,0.0479 0.03359,0.0899 0.032052,-0.0381 0.026466,-0.0446 0.07028,-0.0842 0.1415555,-0.12811 0.3708428,-0.25545 0.6206348,-0.16175 0.4187,0.15701 0.662581,0.50123 0.603581,0.85525 -0.0012,0.007 -0.0098,0.0447 -0.01137,0.0527 0.19978,-0.18847 0.370445,-0.28565 0.707922,-0.15194 0.398713,0.15797 0.461492,0.38119 0.442396,0.65216 0.160915,-0.2198 0.388677,-0.29113 0.630391,-0.24107 0.299682,0.0621 0.512911,0.33467 0.587105,0.60591 l 0.04806,0.004 1.560111,1.06971 c 0.0037,0.002 0.110647,0.0676 0.403593,0.14004 0.295181,0.0729 0.535468,0.12996 0.771013,0.0258 0.161229,-0.0713 0.230708,-0.16557 0.273368,-0.27337 0.03994,-0.10092 0.03506,-0.29304 -0.03721,-0.60151 l -2.769857,-1.91772 0.150378,-0.21652 2.804997,1.9389 c 0.01025,0.004 0.320933,0.14478 0.558623,0.17208 0.243897,0.028 0.422208,-0.0522 0.544669,-0.21135 0.138259,-0.17973 0.202093,-0.31232 0.162264,-0.46819 -0.03716,-0.14543 -0.09652,-0.23268 -0.10542,-0.24598 l -3.226676,-2.1115 0.144694,-0.22273 3.058211,2.01022 c 0.04914,0.006 0.238501,0.0591 0.340031,0.0522 0.162666,-0.0111 0.403949,-0.0675 0.472839,-0.19379 0.134696,-0.114 -0.01445,-0.61625 -0.08992,-0.65215 l -5.537128,-3.7729 c -0.121156,0.098 -1.764382,1.42805 -2.062407,1.65985 -0.347536,0.27034 -0.8426384,0.26504 -1.2485029,-0.0486 l -0.00775,-0.006 -0.00775,-0.008 c -0.1683145,-0.17821 -0.225915,-0.40202 -0.208773,-0.60772 0.017142,-0.20571 0.1028044,-0.39717 0.2165242,-0.5488 0.2157981,-0.28773 1.1859127,-1.42207 1.6484787,-1.88464 0.164112,-0.16411 0.423565,-0.30834 0.664559,-0.45579 z m -3.3341631,5.88747 c -0.092549,0.21815 -0.1193724,0.46302 -0.1193724,0.46302 l -0.2123903,1.07125 c -0.04014,0.1735 0.1475645,0.41292 0.3007564,0.47284 0.2273387,0.0889 0.5274321,-0.12003 0.5679239,-0.14263 l 0.4475178,-1.65157 c -0.00185,-0.0138 -0.010462,-0.0931 -0.080098,-0.20723 -0.075444,-0.12368 -0.1026214,-0.24367 -0.3696691,-0.30647 -0.2702886,-0.0733 -0.4393005,0.10232 -0.5346683,0.30079 z m 1.6660481,-0.0558 c -0.0914,10e-4 -0.1759291,0.0538 -0.2557981,0.12609 -0.1027284,0.0929 -0.1653355,0.19715 -0.1700157,0.20515 l -0.4588867,1.69654 c -0.013608,0.33763 0.098968,0.64383 0.3307292,0.71365 0.3390675,0.10216 0.6029543,-0.0961 0.6221843,-0.1142 0.01145,-0.0471 0.07473,-0.37539 0.189653,-0.85835 0.121441,-0.51038 0.251301,-1.06959 0.271301,-1.18959 0.03549,-0.21294 -0.09838,-0.43628 -0.435633,-0.56275 -0.03205,-0.012 -0.06307,-0.017 -0.09353,-0.0165 z m 0.677863,1.11622 c -0.05426,0.24437 -0.08063,0.37265 -0.162132,0.71519 -0.11896,0.49996 -0.192504,0.86915 -0.197404,0.88935 1.1e-4,0.009 -8.2e-4,0.15248 0.05064,0.3204 0.05302,0.17308 0.150333,0.33826 0.330212,0.39636 0.195175,0.0631 0.343158,-0.003 0.463021,-0.0935 0.112634,-0.0854 0.169967,-0.17578 0.177767,-0.18758 l 0.38654,-1.77044 c 0.06238,-0.15172 -0.0268,-0.50362 -0.335071,-0.6318 -0.256962,-0.12411 -0.665861,0.16038 -0.713576,0.36206 z m 1.306512,0.33589 -0.38654,1.77095 c 4e-5,0.006 -6.88e-4,0.16463 0.0739,0.31987 0.07598,0.15815 0.198251,0.30053 0.527616,0.28733 0.188867,-0.008 0.266417,-0.0614 0.335897,-0.16227 0.06825,-0.0991 0.082,-0.18713 0.130741,-0.38189 0.0017,-0.0131 0.179042,-1.36762 0.201022,-1.5875 0.01082,-0.22812 -0.08846,-0.43676 -0.36438,-0.49635 -0.304657,-0.0658 -0.482786,0.0904 -0.518254,0.24986 z m 1.134815,0.36535 c -0.0365,0.32543 -0.153346,1.20408 -0.171566,1.34359 0.224786,0.0897 0.457376,0.21035 0.67386,0.27905 0.123959,0.0393 0.240381,0.0586 0.340031,0.0506 0.09965,-0.008 0.183868,-0.0403 0.267167,-0.11885 0.22302,-0.21008 0.204699,-0.47884 0.218719,-0.54844 z"
       id="path6517-3-6"
       inkscape:connector-curvature="0"
       sodipodi:nodetypes="ccccccscccccccccccccccccccscssccccccscsccccccccccccccccccccccccccccsccccsccsccccscsccscccccccccccccccccccsccccccccccc" />
  </g>
</svg>
