<?xml version="1.0" standalone="no"?>
<!DOCTYPE svg PUBLIC "-//W3C//DTD SVG 20010904//EN"
 "http://www.w3.org/TR/2001/REC-SVG-20010904/DTD/svg10.dtd">
<svg version="1.0" xmlns="http://www.w3.org/2000/svg"
 width="390.000000pt" height="266.000000pt" viewBox="0 0 390.000000 266.000000"
 preserveAspectRatio="xMidYMid meet">

<g transform="translate(0.000000,266.000000) scale(0.100000,-0.100000)"
fill="#000000" stroke="none">
<path d="M76 2264 c-19 -18 -19 -20 -6 -45 6 -10 21 -19 33 -19 20 1 20 2 5
11 -18 10 -24 40 -11 52 11 12 33 -14 33 -39 0 -22 4 -23 56 -23 37 1 52 4 43
10 -9 6 -10 9 -2 9 6 0 15 -4 18 -10 3 -5 28 -10 54 -10 47 0 48 1 47 30 -1
20 -5 29 -13 25 -7 -2 -13 2 -13 10 0 8 -7 15 -16 15 -10 0 -14 -6 -11 -14 4
-11 -4 -13 -36 -11 -23 1 -47 -2 -53 -6 -6 -5 -19 -1 -32 11 -25 24 -75 26
-96 4z m219 -44 c-3 -5 -10 -10 -16 -10 -5 0 -9 5 -9 10 0 6 7 10 16 10 8 0
12 -4 9 -10z"/>
<path d="M448 2273 c-10 -2 -18 -9 -18 -14 0 -6 -8 -8 -19 -4 -21 6 -46 -18
-38 -39 4 -10 29 -14 101 -14 53 0 94 4 91 8 -3 5 -1 11 5 15 5 3 10 -1 10 -9
0 -9 7 -16 15 -16 8 0 15 7 15 15 0 8 5 15 10 15 6 0 10 -7 10 -15 0 -8 9 -15
20 -15 17 0 20 5 17 27 -4 27 -6 28 -63 29 -32 1 -64 -2 -70 -7 -6 -5 -19 -1
-32 11 -22 20 -24 21 -54 13z m19 -50 c-3 -10 -5 -2 -5 17 0 19 2 27 5 18 2
-10 2 -26 0 -35z m30 -5 c-3 -8 -6 -5 -6 6 -1 11 2 17 5 13 3 -3 4 -12 1 -19z"/>
<path d="M966 2267 c3 -10 -23 -12 -126 -11 -111 1 -132 -1 -139 -15 -15 -29
-1 -41 50 -41 27 0 49 -4 49 -10 0 -14 19 -12 35 4 9 9 29 12 64 8 45 -4 51
-2 45 12 -3 9 -1 16 5 16 6 0 11 -6 11 -14 0 -11 22 -14 96 -15 87 -1 96 0 84
14 -7 8 -10 18 -7 21 3 3 10 -4 17 -15 6 -12 21 -21 33 -21 16 0 18 3 9 9 -11
6 -10 10 4 15 13 5 15 9 5 19 -17 17 -74 18 -87 1 -10 -13 -12 -13 -17 0 -5
12 -19 14 -63 11 -46 -4 -55 -2 -50 10 3 9 0 15 -9 15 -8 0 -12 -6 -9 -13z
m-206 -42 c0 -9 -9 -15 -22 -15 -21 0 -21 0 -2 15 24 18 24 18 24 0z m50 -6
c0 -5 -4 -9 -10 -9 -5 0 -10 7 -10 16 0 8 5 12 10 9 6 -3 10 -10 10 -16z m267
-1 c-3 -8 -6 -5 -6 6 -1 11 2 17 5 13 3 -3 4 -12 1 -19z m-157 2 c0 -5 -7 -10
-16 -10 -8 0 -12 5 -9 10 3 6 10 10 16 10 5 0 9 -4 9 -10z m130 0 c0 -5 -8
-10 -17 -10 -15 0 -16 2 -3 10 19 12 20 12 20 0z"/>
<path d="M1618 2258 c4 -16 2 -19 -9 -12 -12 8 -59 14 -59 8 0 -2 4 -14 10
-28 9 -26 11 -26 110 -26 60 0 100 -4 100 -10 0 -13 47 -13 55 -1 3 5 1 12 -5
16 -5 3 -7 17 -4 31 6 24 5 24 -55 20 -46 -2 -61 0 -61 10 0 8 -5 14 -11 14
-6 0 -9 -7 -5 -15 3 -8 1 -15 -4 -15 -6 0 -10 7 -10 15 0 10 -10 15 -29 15
-25 0 -28 -3 -23 -22z m29 -35 c-3 -10 -5 -2 -5 17 0 19 2 27 5 18 2 -10 2
-26 0 -35z m30 -5 c-3 -8 -6 -5 -6 6 -1 11 2 17 5 13 3 -3 4 -12 1 -19z m-57
2 c0 -5 -8 -10 -17 -10 -15 0 -16 2 -3 10 19 12 20 12 20 0z"/>
<path d="M1873 2274 c3 -4 -3 -14 -14 -23 -26 -21 -16 -51 17 -51 21 0 24 4
24 40 0 31 -4 40 -17 40 -9 0 -14 -3 -10 -6z"/>
<path d="M2020 2266 c0 -9 -7 -12 -20 -9 -14 4 -22 -1 -29 -18 -9 -22 -10 -22
-10 -3 -1 33 -45 25 -49 -9 -3 -26 -1 -27 43 -27 38 0 46 3 41 15 -3 9 0 15 9
15 8 0 15 -7 15 -15 0 -11 12 -15 45 -15 25 0 45 -4 45 -10 0 -13 47 -13 55
-1 3 5 1 12 -5 16 -5 3 -7 17 -4 30 6 23 4 24 -47 22 -47 -2 -54 -5 -60 -27
l-7 -25 -3 25 c-1 14 -2 31 -2 38 1 6 -3 12 -8 12 -5 0 -9 -6 -9 -14z"/>
<path d="M2188 2255 c-18 -39 2 -54 70 -52 l57 2 4 35 3 35 12 -34 c14 -39 36
-53 36 -24 0 11 7 28 15 39 13 18 14 17 15 -19 l0 -38 46 3 c54 3 77 26 58 56
-8 12 -27 18 -72 20 -56 3 -61 1 -65 -20 -4 -23 -4 -23 -12 -2 -5 17 -15 22
-43 21 -21 0 -42 -4 -49 -9 -7 -5 -14 -5 -18 2 -12 19 -45 10 -57 -15z m59
-29 c-4 -9 -11 -16 -17 -16 -15 0 -24 26 -16 47 6 15 8 15 23 1 9 -9 13 -24
10 -32z m53 14 c0 -22 -16 -35 -25 -20 -9 14 4 52 16 45 5 -4 9 -15 9 -25z
m140 0 c0 -16 -4 -30 -10 -30 -11 0 -14 43 -3 53 11 12 13 8 13 -23z m37 -17
c-3 -10 -5 -4 -5 12 0 17 2 24 5 18 2 -7 2 -21 0 -30z"/>
<path d="M2619 2243 c-1 -33 -2 -34 -8 -13 -6 22 -14 27 -38 21 -5 0 -9 -12
-9 -26 -2 -25 -1 -25 77 -24 62 1 81 5 89 18 9 15 9 14 10 -1 0 -28 47 -24 53
5 l4 22 2 -22 c2 -35 26 -28 25 7 -1 36 -9 46 -26 33 -7 -6 -33 -9 -58 -8 -25
0 -50 -2 -56 -7 -6 -4 -20 1 -32 12 -29 27 -32 26 -33 -17z m28 -25 c-3 -8 -6
-5 -6 6 -1 11 2 17 5 13 3 -3 4 -12 1 -19z m60 0 c-3 -8 -6 -5 -6 6 -1 11 2
17 5 13 3 -3 4 -12 1 -19z"/>
<path d="M3090 2268 c0 -14 -48 -17 -67 -5 -7 5 -18 5 -25 1 -6 -4 -40 -8 -76
-8 -64 -1 -65 -2 -66 -29 -1 -16 4 -27 11 -27 7 0 13 7 13 15 0 19 16 20 23 1
5 -12 25 -15 86 -14 64 0 79 3 74 14 -3 9 1 14 12 14 10 0 15 -5 12 -13 -4
-11 24 -14 149 -15 84 -1 156 2 158 7 3 4 3 17 0 29 -6 19 -12 20 -90 17 -67
-2 -84 0 -84 11 0 8 -5 14 -11 14 -5 0 -8 -4 -5 -8 3 -5 1 -22 -4 -38 l-8 -29
-1 33 c-1 31 -14 42 -26 22 -4 -6 -11 -8 -16 -4 -5 3 -16 1 -24 -6 -15 -12
-31 3 -20 20 3 6 1 10 -4 10 -6 0 -11 -6 -11 -12z m-50 -44 c0 -8 -5 -12 -10
-9 -6 4 -8 11 -5 16 9 14 15 11 15 -7z m217 -6 c-3 -8 -6 -5 -6 6 -1 11 2 17
5 13 3 -3 4 -12 1 -19z m-92 2 c-3 -5 -10 -10 -16 -10 -5 0 -9 5 -9 10 0 6 7
10 16 10 8 0 12 -4 9 -10z"/>
<path d="M3564 2272 c2 -4 -4 -13 -14 -20 -11 -6 -21 -8 -24 -3 -3 5 -27 8
-53 7 -45 -1 -48 -3 -51 -29 l-3 -27 85 0 86 0 0 40 c0 30 -4 40 -16 40 -8 0
-13 -4 -10 -8z m-87 -54 c-3 -8 -6 -5 -6 6 -1 11 2 17 5 13 3 -3 4 -12 1 -19z
m30 0 c-3 -8 -6 -5 -6 6 -1 11 2 17 5 13 3 -3 4 -12 1 -19z"/>
<path d="M1377 2263 c-3 -4 -3 -20 0 -36 4 -22 11 -27 34 -27 19 0 29 5 29 15
0 8 5 15 10 15 6 0 10 -7 10 -15 0 -9 9 -15 25 -15 17 0 25 6 25 17 0 15 1 15
13 -2 16 -21 28 -8 21 22 -5 19 -13 21 -67 20 -56 -2 -62 -4 -69 -27 -7 -24
-7 -24 -5 4 2 28 -15 47 -26 29z"/>
<path d="M3622 2238 l3 -33 95 -2 c52 -2 100 -1 106 1 7 3 9 16 7 31 -7 33
-34 30 -45 -5 -7 -24 -8 -24 -4 3 4 30 -8 44 -27 30 -7 -5 -28 -9 -47 -8 -19
1 -41 -3 -47 -8 -9 -7 -13 -5 -13 7 0 9 -7 16 -16 16 -11 0 -14 -8 -12 -32z
m83 -18 c-3 -5 -12 -10 -18 -10 -7 0 -6 4 3 10 19 12 23 12 15 0z"/>
<path d="M1239 2249 c-6 -3 -9 -15 -7 -25 3 -16 14 -19 61 -22 58 -2 58 -2 55
25 -3 26 -6 28 -51 28 -26 1 -52 -2 -58 -6z m18 -31 c-3 -8 -6 -5 -6 6 -1 11
2 17 5 13 3 -3 4 -12 1 -19z"/>
<path d="M2512 2211 c4 -13 18 -16 19 -4 0 4 -5 9 -11 12 -7 2 -11 -2 -8 -8z"/>
<path d="M2422 443 c-23 -41 -29 -59 -22 -69 6 -6 64 -56 130 -111 l119 -98
-344 -5 c-189 -3 -346 -8 -349 -11 -17 -17 473 -26 651 -13 l81 7 31 60 c25
49 29 63 19 72 -73 65 -268 225 -275 225 -4 -1 -23 -26 -41 -57z"/>
</g>
</svg>
