<?xml version="1.0" standalone="no"?>
<!DOCTYPE svg PUBLIC "-//W3C//DTD SVG 20010904//EN"
 "http://www.w3.org/TR/2001/REC-SVG-20010904/DTD/svg10.dtd">
<svg version="1.0" xmlns="http://www.w3.org/2000/svg"
 width="390.000000pt" height="266.000000pt" viewBox="0 0 390.000000 266.000000"
 preserveAspectRatio="xMidYMid meet">
<metadata>
Created by potrace 1.16, written by Peter Selinger 2001-2019
</metadata>
<g transform="translate(0.000000,266.000000) scale(0.100000,-0.100000)"
fill="#000000" stroke="none">
<path d="M878 2412 c-32 -19 -36 -39 -12 -57 13 -9 18 -35 22 -109 4 -85 3
-98 -13 -110 -11 -8 -16 -20 -12 -30 5 -12 20 -16 68 -16 l62 0 -7 33 c-4 17
-9 88 -13 155 -8 154 -24 177 -95 134z"/>
<path d="M656 2401 c-25 -28 -18 -85 11 -89 17 -3 22 3 25 23 2 14 8 27 13 28
24 5 14 -49 -24 -131 -43 -93 -49 -120 -29 -140 14 -14 134 -16 142 -3 10 16
-5 41 -25 41 -23 0 -23 -2 -4 85 21 101 20 160 -5 185 -26 26 -81 26 -104 1z"/>
<path d="M1186 2402 c-12 -38 -11 -237 2 -259 15 -28 49 -46 68 -39 12 5 14
18 8 66 -6 57 -5 62 15 67 27 7 28 43 1 50 -30 8 -28 60 2 65 35 5 34 34 -1
52 -41 22 -88 21 -95 -2z"/>
<path d="M1946 2411 c-3 -4 -8 -57 -12 -117 -8 -128 6 -179 51 -190 14 -3 29
-3 33 0 4 4 5 34 4 66 -3 51 0 60 17 70 28 14 26 34 -3 48 -30 14 -25 59 7 64
34 5 33 35 -2 52 -33 17 -87 21 -95 7z"/>
<path d="M2435 2394 c-8 -9 -15 -31 -15 -50 0 -22 -5 -34 -14 -34 -24 0 -40
-28 -26 -45 6 -8 17 -13 22 -12 6 1 11 -21 13 -50 3 -67 27 -105 63 -101 31 3
43 36 18 50 -11 6 -16 23 -16 58 0 43 3 50 28 62 34 17 35 40 2 48 -20 5 -26
13 -28 42 -3 41 -24 55 -47 32z"/>
<path d="M1408 2320 c-14 -11 -31 -39 -38 -65 -11 -40 -11 -50 5 -86 33 -72
95 -92 134 -43 17 22 21 41 21 100 0 66 -2 74 -26 93 -33 26 -64 27 -96 1z"/>
<path d="M1587 2333 c-4 -3 -7 -50 -7 -104 0 -82 3 -100 20 -120 20 -24 20
-24 35 -5 8 11 15 31 15 44 0 42 31 91 76 119 45 29 52 41 32 61 -17 17 -42
15 -70 -7 -24 -19 -24 -19 -36 0 -12 18 -52 26 -65 12z"/>
<path d="M2132 2328 c-16 -16 -16 -165 1 -198 8 -16 23 -26 42 -28 24 -3 36 3
62 35 l33 38 0 -30 c0 -35 16 -56 36 -48 11 4 14 27 13 92 -2 115 -9 146 -34
146 -15 0 -21 -9 -27 -42 -8 -46 -36 -113 -48 -113 -4 0 -11 35 -16 78 -8 66
-12 77 -29 80 -11 1 -26 -3 -33 -10z"/>
<path d="M2602 2328 c-19 -19 -16 -178 4 -206 24 -34 72 -27 100 15 24 36 34
33 34 -8 0 -28 18 -42 39 -30 9 6 10 36 4 122 -7 103 -10 114 -27 114 -15 0
-22 -11 -31 -52 -7 -28 -20 -64 -31 -80 l-19 -28 -10 80 c-9 69 -13 80 -30 83
-11 1 -26 -3 -33 -10z"/>
<path d="M2847 2333 c-4 -3 -7 -52 -7 -108 0 -72 4 -107 14 -121 13 -17 16
-17 30 -4 9 9 20 37 25 63 9 51 38 89 84 114 20 10 27 20 25 36 -4 30 -35 33
-69 8 -35 -26 -35 -26 -42 -1 -5 20 -45 28 -60 13z"/>
<path d="M3097 2320 c-32 -26 -55 -114 -41 -162 13 -47 66 -72 131 -61 42 8
48 11 48 33 0 22 -4 25 -33 22 -35 -4 -62 11 -62 34 0 8 16 14 43 16 42 3 42
3 45 47 3 34 -2 49 -19 67 -28 30 -77 32 -112 4z"/>
<path d="M2685 710 c-14 -23 -68 -39 -180 -55 -66 -10 -123 -20 -127 -24 -4
-4 -1 -63 7 -131 8 -69 15 -126 15 -127 0 -2 -85 -3 -190 -3 -145 0 -190 -3
-190 -12 0 -7 7 -38 15 -68 8 -30 11 -57 7 -60 -4 -4 -33 -14 -64 -24 -50 -15
-78 -37 -78 -60 0 -3 119 -6 264 -6 l263 0 -5 53 -4 52 29 -28 c47 -43 78 -48
203 -27 78 12 118 24 133 37 12 11 41 25 65 31 41 10 44 9 52 -14 18 -46 46
-64 101 -64 45 0 50 2 44 18 -4 9 -20 73 -37 142 -40 170 -58 228 -77 251 -16
19 -17 19 -103 -10 -48 -16 -89 -27 -92 -23 -2 4 -11 42 -21 85 -9 42 -19 77
-20 77 -2 0 -7 -5 -10 -10z"/>
</g>
</svg>
